<svg width="500" height="500" viewBox="0 0 500 500" fill="none" xmlns="http://www.w3.org/2000/svg">
<rect width="500" height="500" rx="250" fill="#047857"/>
<path d="M128.44 205.144V258.904C128.44 264.28 129.763 268.419 132.408 271.32C135.053 274.221 138.936 275.672 144.056 275.672C149.176 275.672 153.101 274.221 155.832 271.32C158.563 268.419 159.928 264.28 159.928 258.904V205.144H181.816V258.776C181.816 266.797 180.109 273.581 176.696 279.128C173.283 284.675 168.675 288.856 162.872 291.672C157.155 294.488 150.755 295.896 143.672 295.896C136.589 295.896 130.232 294.531 124.6 291.8C119.053 288.984 114.659 284.803 111.416 279.256C108.173 273.624 106.552 266.797 106.552 258.776V205.144H128.44ZM218.824 235.48C221.384 231.555 224.584 228.483 228.424 226.264C232.264 223.96 236.531 222.808 241.224 222.808V245.976H235.208C229.747 245.976 225.651 247.171 222.92 249.56C220.189 251.864 218.824 255.96 218.824 261.848V295H196.936V223.576H218.824V235.48ZM321.964 223.576V295H300.076V285.272C297.857 288.429 294.828 290.989 290.988 292.952C287.233 294.829 283.052 295.768 278.444 295.768C272.983 295.768 268.161 294.573 263.98 292.184C259.799 289.709 256.556 286.168 254.252 281.56C251.948 276.952 250.796 271.533 250.796 265.304V223.576H272.556V262.36C272.556 267.139 273.793 270.851 276.268 273.496C278.743 276.141 282.071 277.464 286.252 277.464C290.519 277.464 293.889 276.141 296.364 273.496C298.839 270.851 300.076 267.139 300.076 262.36V223.576H321.964ZM366.492 296.024C360.263 296.024 354.716 294.957 349.852 292.824C344.988 290.691 341.148 287.789 338.332 284.12C335.516 280.365 333.937 276.184 333.596 271.576H355.228C355.484 274.051 356.636 276.056 358.684 277.592C360.732 279.128 363.249 279.896 366.236 279.896C368.967 279.896 371.057 279.384 372.508 278.36C374.044 277.251 374.812 275.843 374.812 274.136C374.812 272.088 373.745 270.595 371.612 269.656C369.479 268.632 366.023 267.523 361.244 266.328C356.124 265.133 351.857 263.896 348.444 262.616C345.031 261.251 342.087 259.16 339.612 256.344C337.137 253.443 335.9 249.56 335.9 244.696C335.9 240.6 337.009 236.888 339.228 233.56C341.532 230.147 344.86 227.459 349.212 225.496C353.649 223.533 358.897 222.552 364.956 222.552C373.916 222.552 380.956 224.771 386.076 229.208C391.281 233.645 394.268 239.533 395.036 246.872H374.812C374.471 244.397 373.361 242.435 371.484 240.984C369.692 239.533 367.303 238.808 364.316 238.808C361.756 238.808 359.793 239.32 358.428 240.344C357.063 241.283 356.38 242.605 356.38 244.312C356.38 246.36 357.447 247.896 359.58 248.92C361.799 249.944 365.212 250.968 369.82 251.992C375.111 253.357 379.42 254.723 382.748 256.088C386.076 257.368 388.977 259.501 391.452 262.488C394.012 265.389 395.335 269.315 395.42 274.264C395.42 278.445 394.225 282.2 391.836 285.528C389.532 288.771 386.161 291.331 381.724 293.208C377.372 295.085 372.295 296.024 366.492 296.024Z" fill="white"/>
</svg>
