<svg width="500" height="500" viewBox="0 0 500 500" fill="none" xmlns="http://www.w3.org/2000/svg">
<rect width="500" height="500" fill="#047857"/>
<path d="M99.0909 203.909H123.364L149 266.455H150.091L175.727 203.909H200V297H180.909V236.409H180.136L156.045 296.545H143.045L118.955 236.182H118.182V297H99.0909V203.909ZM215.966 203.909H240.239L265.875 266.455H266.966L292.602 203.909H316.875V297H297.784V236.409H297.011L272.92 296.545H259.92L235.83 236.182H235.057V297H215.966V203.909ZM383.341 230.682C382.977 227.015 381.417 224.167 378.659 222.136C375.902 220.106 372.159 219.091 367.432 219.091C364.22 219.091 361.508 219.545 359.295 220.455C357.083 221.333 355.386 222.561 354.205 224.136C353.053 225.712 352.477 227.5 352.477 229.5C352.417 231.167 352.765 232.621 353.523 233.864C354.311 235.106 355.386 236.182 356.75 237.091C358.114 237.97 359.689 238.742 361.477 239.409C363.265 240.045 365.174 240.591 367.205 241.045L375.568 243.045C379.629 243.955 383.356 245.167 386.75 246.682C390.144 248.197 393.083 250.061 395.568 252.273C398.053 254.485 399.977 257.091 401.341 260.091C402.735 263.091 403.447 266.53 403.477 270.409C403.447 276.106 401.992 281.045 399.114 285.227C396.265 289.379 392.144 292.606 386.75 294.909C381.386 297.182 374.917 298.318 367.341 298.318C359.826 298.318 353.28 297.167 347.705 294.864C342.159 292.561 337.826 289.152 334.705 284.636C331.614 280.091 329.992 274.47 329.841 267.773H348.886C349.098 270.894 349.992 273.5 351.568 275.591C353.174 277.652 355.311 279.212 357.977 280.273C360.674 281.303 363.72 281.818 367.114 281.818C370.447 281.818 373.341 281.333 375.795 280.364C378.28 279.394 380.205 278.045 381.568 276.318C382.932 274.591 383.614 272.606 383.614 270.364C383.614 268.273 382.992 266.515 381.75 265.091C380.538 263.667 378.75 262.455 376.386 261.455C374.053 260.455 371.189 259.545 367.795 258.727L357.659 256.182C349.811 254.273 343.614 251.288 339.068 247.227C334.523 243.167 332.265 237.697 332.295 230.818C332.265 225.182 333.765 220.258 336.795 216.045C339.856 211.833 344.053 208.545 349.386 206.182C354.72 203.818 360.78 202.636 367.568 202.636C374.477 202.636 380.508 203.818 385.659 206.182C390.841 208.545 394.871 211.833 397.75 216.045C400.629 220.258 402.114 225.136 402.205 230.682H383.341Z" fill="white"/>
</svg>
